<?xml version="1.0" encoding="UTF-8"?>
<!-- Generator: Adobe Illustrator 15.0.0, SVG Export Plug-In . SVG Version: 6.00 Build 0)  -->
<!DOCTYPE svg PUBLIC "-//W3C//DTD SVG 1.1//EN" "http://www.w3.org/Graphics/SVG/1.1/DTD/svg11.dtd">
<svg version="1.1" id="Layer_1" xmlns="http://www.w3.org/2000/svg" xmlns:xlink="http://www.w3.org/1999/xlink" x="0px" y="0px" width="136.5px" height="49px" viewBox="0 0 136.5 49" enable-background="new 0 0 136.5 49" xml:space="preserve">
<g>
	<g>
		<path fill="#4285C6" d="M66.165,25.74c0,2.188-0.497,3.933-1.492,5.248c-0.988,1.313-2.325,1.966-4.013,1.966    c-1.436,0-2.59-0.496-3.47-1.493v6.682h-3.782V18.529h3.508l0.134,1.388c0.918-1.101,2.115-1.649,3.588-1.649    c1.745,0,3.104,0.648,4.076,1.941c0.967,1.289,1.451,3.07,1.451,5.344V25.74L66.165,25.74z M62.377,25.466    c0-1.317-0.231-2.33-0.694-3.048c-0.471-0.718-1.146-1.073-2.039-1.073c-1.186,0-2,0.456-2.446,1.36v5.801    c0.457,0.938,1.284,1.4,2.475,1.4C61.479,29.904,62.377,28.424,62.377,25.466z"/>
        <path fill="#4285C6" d="M66.577,25.486c0-1.408,0.272-2.661,0.814-3.766c0.542-1.101,1.318-1.951,2.334-2.551    c1.02-0.6,2.202-0.904,3.543-0.904c1.914,0,3.475,0.589,4.682,1.755c1.208,1.17,1.885,2.762,2.022,4.768l0.026,0.966    c0,2.173-0.609,3.917-1.823,5.232c-1.214,1.313-2.841,1.972-4.887,1.972c-2.038,0-3.67-0.656-4.889-1.964    c-1.218-1.312-1.825-3.093-1.825-5.343v-0.168h0.003V25.486z M70.363,25.751c0,1.341,0.248,2.373,0.756,3.087    c0.507,0.716,1.231,1.066,2.174,1.066c0.917,0,1.632-0.352,2.148-1.051c0.513-0.703,0.773-1.832,0.773-3.377    c0-1.322-0.257-2.344-0.773-3.07c-0.517-0.723-1.241-1.083-2.174-1.083c-0.925,0-1.645,0.354-2.148,1.081    C70.611,23.121,70.363,24.236,70.363,25.751z"/>
        <path fill="#4285C6" d="M88.66,28.779c0-0.463-0.229-0.826-0.688-1.096c-0.459-0.264-1.195-0.504-2.202-0.713    c-3.371-0.703-5.061-2.138-5.061-4.292c0-1.258,0.521-2.31,1.566-3.148c1.043-0.842,2.402-1.262,4.09-1.262    c1.799,0,3.237,0.42,4.313,1.268c1.075,0.845,1.619,1.943,1.619,3.299h-3.782c0-0.54-0.176-0.99-0.525-1.338    c-0.348-0.355-0.892-0.531-1.637-0.531c-0.638,0-1.127,0.145-1.479,0.434c-0.347,0.287-0.522,0.65-0.522,1.102    c0,0.417,0.201,0.758,0.596,1.01c0.398,0.262,1.067,0.484,2.013,0.669c0.943,0.188,1.736,0.404,2.378,0.636    c2.005,0.737,3.003,2.007,3.003,3.813c0,1.29-0.558,2.339-1.662,3.136c-1.107,0.797-2.539,1.198-4.297,1.198    c-1.188,0-2.244-0.215-3.161-0.637c-0.922-0.42-1.646-1.004-2.167-1.741c-0.525-0.736-0.787-1.531-0.787-2.388h3.588    c0.035,0.672,0.283,1.186,0.745,1.543c0.465,0.358,1.084,0.538,1.859,0.538c0.725,0,1.272-0.137,1.646-0.409    C88.475,29.59,88.66,29.227,88.66,28.779z"/>
        <path fill="#4285C6" d="M96.918,18.529l0.119,1.636c1.012-1.264,2.363-1.898,4.068-1.898c1.5,0,2.623,0.439,3.352,1.324    c0.73,0.878,1.107,2.197,1.131,3.954v9.15h-3.787v-9.061c0-0.799-0.174-1.385-0.521-1.747c-0.348-0.36-0.924-0.542-1.737-0.542    c-1.065,0-1.868,0.456-2.397,1.364v9.988h-3.787V18.533h3.563v-0.004H96.918z"/>
        <path fill="#4285C6" d="M107.088,14.861c0-0.565,0.188-1.034,0.568-1.398c0.377-0.371,0.896-0.553,1.551-0.553    c0.646,0,1.16,0.182,1.547,0.553c0.378,0.364,0.578,0.833,0.578,1.398c0,0.579-0.195,1.052-0.586,1.416    c-0.393,0.367-0.9,0.549-1.539,0.549s-1.146-0.182-1.537-0.549C107.28,15.911,107.088,15.436,107.088,14.861z M111.105,32.695    h-3.797V18.529h3.797V32.695z"/>
        <path fill="#4285C6" d="M118.77,29.904c0.703,0,1.27-0.189,1.705-0.576c0.438-0.387,0.663-0.895,0.682-1.529h3.547    c-0.01,0.96-0.27,1.84-0.783,2.639c-0.52,0.797-1.219,1.416-2.113,1.859c-0.893,0.438-1.882,0.662-2.973,0.662    c-2.021,0-3.616-0.646-4.791-1.934c-1.17-1.284-1.756-3.068-1.756-5.332v-0.25c0-2.183,0.582-3.924,1.74-5.226    c1.16-1.3,2.758-1.952,4.776-1.952c1.774,0,3.196,0.503,4.263,1.51c1.07,1.009,1.613,2.35,1.637,4.026h-3.555    c-0.02-0.739-0.24-1.334-0.678-1.797c-0.438-0.458-1.02-0.688-1.729-0.688c-0.885,0-1.549,0.318-1.996,0.961    c-0.449,0.645-0.678,1.688-0.678,3.129V25.8c0,1.46,0.229,2.511,0.674,3.149C117.193,29.59,117.865,29.904,118.77,29.904z"/>
	</g>
    <g>
		<path fill="#4285C6" d="M126.398,15.925h-0.668v1.808h-0.445v-1.808h-0.66v-0.364h1.773V15.925L126.398,15.925z"/>
        <path fill="#4285C6" d="M127.237,15.561l0.558,1.579l0.557-1.579h0.588v2.172h-0.449v-0.596l0.049-1.021l-0.592,1.613h-0.311    l-0.583-1.613l0.044,1.021v0.596h-0.451v-2.172H127.237z"/>
	</g>
</g>
    <g>
	<circle fill="#4285C6" cx="26.781" cy="23.555" r="1.407"/>
        <circle fill="#4285C6" cx="32.157" cy="23.555" r="1.407"/>
        <g>
		<g>
			<path fill="#4285C6" d="M29.501,33.289c-2.689,0-4.877-2.187-4.877-4.877h0.852c0,2.218,1.805,4.022,4.025,4.022     c2.219,0,4.023-1.805,4.023-4.022h0.854C34.378,31.102,32.19,33.289,29.501,33.289z"/>
		</g>
            <g>
			<rect x="33.008" y="28.199" fill="#4285C6" width="1.757" height="0.425"/>
		</g>
            <g>
			<rect x="24.172" y="28.199" fill="#4285C6" width="1.757" height="0.425"/>
		</g>
	</g>
        <g>
		<line fill="#4285C6" x1="37.063" y1="13.67" x2="40.133" y2="13.67"/>
            <rect x="37.063" y="13.245" fill="#4285C6" width="3.069" height="0.851"/>
	</g>
        <g>
		<line fill="#4285C6" x1="37.587" y1="15.613" x2="42.672" y2="15.613"/>
            <rect x="37.587" y="15.188" fill="#4285C6" width="5.084" height="0.852"/>
	</g>
        <path fill="#4285C6" d="M45.353,12.376c-1.384-2.191-3.82-3.727-6.434-3.83c-3.378-0.002-6.753,0-10.13,0   c-1.317,0.012-2.65-0.082-3.946,0.225c-2.757,0.611-5.102,2.745-5.993,5.42c-0.72,2.203-0.408,4.559-0.39,6.83   c0.017,3.611-0.033,7.249,0.028,10.84c-1.802-0.004-3.604,0-5.408-0.004c-0.605,0.021-1.269,0.168-1.656,0.682   c-0.681,0.796-0.499,1.919-0.484,2.886c0.193,2.193,2.004,4.072,4.166,4.414c1.008,0.166,2.021-0.118,3.036,0.037   c1.477,0.063,2.956,0.003,4.437,0.032l8.748-0.008c1.43-0.062,2.94,0.228,4.284-0.408c2.021-0.808,3.487-2.844,3.564-5.022   c0.132-4.77,0.026-9.551,0.06-14.323c1.672-0.022,3.346,0,5.02-0.008c1.184-0.031,2.406-0.869,2.518-2.115   C46.843,16.066,46.46,14.022,45.353,12.376z M18.231,36.178c-0.864,1.861-3.928,1.765-4.711-0.121   c-0.208-0.482-0.375-1.73,0.824-1.769c-0.003-0.004-0.014-0.014-0.014-0.014l4.086-0.014c0.049,0,0.098,0,0.146,0   C18.538,34.916,18.54,35.579,18.231,36.178z M36.831,34.482c-0.117,1.845-1.914,3.227-3.711,3.164l-12.257,0.046   c-0.111-4.728-0.002-13.212-0.117-17.942c0.069-1.75-0.246-3.596,0.481-5.25c0.548-1.312,1.609-2.322,2.816-3.029l0.063,0.002   c1.607-0.729,3.52-0.792,5.121-0.017c2.196,0.973,3.639,3.387,3.42,5.785c0.055,0.91-0.289,2.253,0.791,2.694   c1.108,0.297,2.297,0.068,3.439,0.131C36.871,24.871,36.952,29.682,36.831,34.482z M44.266,17.563   c-0.256,0.126-0.551,0.117-0.823,0.124c-2.66,0.005-5.319-0.005-7.973,0.005c0.004-2.002-0.375-4.09-1.609-5.732   c-0.238-0.413-0.649-0.699-0.853-1.127l7.438,0.108c2.328,0.625,4.048,2.807,4.351,5.165   C44.939,16.648,44.743,17.246,44.266,17.563z"/>
</g>
</svg>